# Apple ModelIO OBJ File: EnergyMedal001
mtllib EnergyMedal001.mtl
g 
v 9.6674 0.013681 1.78098
v 9.6674 0.013681 1.92424
v 10.0502 0.508442 1.92424
v 10.0502 0.508442 1.78098
v 10.3111 0.218152 1.78098
v 10.0364 0.185073 1.78098
v 10.0364 0.185073 1.92424
v 10.3111 0.218152 1.92424
v 9.92581 -0.525148 1.78098
v 10.3377 0.176938 1.78098
v 10.3377 0.176938 1.92424
v 9.92581 -0.525148 1.92424
v 10.3447 0.199995 1.78098
v 10.3447 0.199995 1.92424
v 10.335 0.21508 1.78098
v 10.335 0.21508 1.92424
v 10.07 0.530485 1.92424
v 10.0994 0.517382 1.92424
v 10.0895 0.549144 1.92424
v 10.07 0.530485 1.78098
v 10.0895 0.549143 1.78098
v 10.1002 0.544348 1.92424
v 10.1002 0.544348 1.78098
v 10.0994 0.517382 1.78098
v 9.65194 -0.020258 1.78098
v 9.65194 -0.020258 1.92424
v 9.66441 -0.042279 1.78098
v 9.66441 -0.042279 1.92424
v 9.70146 -0.046482 1.78098
v 9.70146 -0.046482 1.92424
v 9.9914 -0.012061 1.78098
v 9.9914 -0.012061 1.92424
v 9.89777 -0.514555 1.92424
v 9.89777 -0.514555 1.78098
v 9.89617 -0.545678 1.78098
v 9.89617 -0.545678 1.92424
v 9.90643 -0.549556 1.78098
v 9.90643 -0.549556 1.92424
v 9.29289 0.707107 1.57231
v 9.29289 0.707107 1.98721
v 9.44443 0.83147 1.98721
v 9.44443 0.83147 1.57231
v 10.1951 0.980786 1.57231
v 10.1951 0.980786 1.98721
v 10.3827 0.92388 1.98721
v 10.3827 0.92388 1.57231
v 10.3827 -0.923879 1.57231
v 10.3827 -0.923879 1.98721
v 10.1951 -0.980785 1.98721
v 10.1951 -0.980785 1.57231
v 9.16853 0.55557 1.57231
v 9.16853 0.55557 1.98721
v 10 1 1.57231
v 10 1 1.98721
v 10.5556 -0.831469 1.57231
v 10.5556 -0.831469 1.98721
v 9.07612 0.382683 1.57231
v 9.07612 0.382683 1.98721
v 10.7071 -0.707106 1.57231
v 10.7071 -0.707106 1.98721
v 9.01922 0.19509 1.57231
v 9.01922 0.19509 1.98721
v 10.8315 -0.55557 1.57231
v 10.8315 -0.55557 1.98721
v 9 0 1.57231
v 9 0 1.98721
v 10.9239 -0.382683 1.57231
v 10.9239 -0.382683 1.98721
v 9.01922 -0.19509 1.57231
v 9.01922 -0.19509 1.98721
v 10.9808 -0.195089 1.57231
v 10.9808 -0.195089 1.98721
v 9.07612 -0.382683 1.57231
v 9.07612 -0.382683 1.98721
v 11 1e-06 1.57231
v 11 1e-06 1.98721
v 9.16853 -0.55557 1.57231
v 9.16853 -0.55557 1.98721
v 10.9808 0.195091 1.57231
v 10.9808 0.195091 1.98721
v 9.29289 -0.707107 1.57231
v 9.29289 -0.707107 1.98721
v 10.9239 0.382684 1.57231
v 10.9239 0.382684 1.98721
v 9.44443 -0.83147 1.57231
v 9.44443 -0.83147 1.98721
v 10.8315 0.555571 1.57231
v 10.8315 0.555571 1.98721
v 9.61732 -0.92388 1.57231
v 9.61732 -0.92388 1.98721
v 9.80491 0.980785 1.57231
v 9.80491 0.980785 1.98721
v 10.7071 0.707108 1.57231
v 10.7071 0.707108 1.98721
v 9.80491 -0.980785 1.57231
v 9.80491 -0.980785 1.98721
v 9.61732 0.92388 1.57231
v 9.61732 0.92388 1.98721
v 10.5556 0.83147 1.57231
v 10.5556 0.83147 1.98721
v 10 -1 1.57231
v 10 -1 1.98721
v 9.85082 -0.749972 1.98721
v 9.85082 -0.749972 1.81054
v 9.70738 -0.706458 1.81054
v 9.70738 -0.706458 1.98721
v 9.70738 0.706458 1.98721
v 9.70738 0.706458 1.81054
v 9.85082 0.749972 1.81054
v 9.85082 0.749972 1.98721
v 10.4248 0.635796 1.98721
v 10.4248 0.635796 1.81054
v 10.5407 0.5407 1.81054
v 10.5407 0.5407 1.98721
v 10 -0.764665 1.98721
v 10 -0.764665 1.81054
v 9.57518 0.635796 1.98721
v 9.57518 0.635796 1.81054
v 10.2926 0.706459 1.98721
v 10.2926 0.706459 1.81054
v 10.1492 -0.749972 1.98721
v 10.1492 -0.749972 1.81054
v 9.4593 0.5407 1.98721
v 9.4593 0.5407 1.81054
v 10.1492 0.749972 1.98721
v 10.1492 0.749972 1.81054
v 10.2926 -0.706458 1.98721
v 10.2926 -0.706458 1.81054
v 9.36421 0.424825 1.98721
v 9.36421 0.424825 1.81054
v 10 0.764665 1.98721
v 10 0.764665 1.81054
v 10.4248 -0.635795 1.98721
v 10.4248 -0.635795 1.81054
v 9.29354 0.292625 1.98721
v 9.29354 0.292625 1.81054
v 10.5407 -0.540699 1.98721
v 10.5407 -0.540699 1.81054
v 9.25003 0.149179 1.98721
v 9.25003 0.149179 1.81054
v 10.6358 -0.424825 1.98721
v 10.6358 -0.424825 1.81054
v 9.23534 0 1.98721
v 9.23534 0 1.81054
v 10.7065 -0.292624 1.98721
v 10.7065 -0.292624 1.81054
v 9.25003 -0.149179 1.98721
v 9.25003 -0.149179 1.81054
v 10.75 -0.149178 1.98721
v 10.75 -0.149178 1.81054
v 9.29354 -0.292624 1.98721
v 9.29354 -0.292624 1.81054
v 10.7647 1e-06 1.98721
v 10.7647 1e-06 1.81054
v 9.36421 -0.424825 1.98721
v 9.36421 -0.424825 1.81054
v 10.75 0.14918 1.98721
v 10.75 0.14918 1.81054
v 9.4593 -0.5407 1.98721
v 9.4593 -0.5407 1.81054
v 10.7065 0.292625 1.98721
v 10.7065 0.292625 1.81054
v 9.57518 -0.635796 1.98721
v 9.57518 -0.635796 1.81054
v 10.6358 0.424826 1.98721
v 10.6358 0.424826 1.81054
v 10 0 1.57231
vn -0.7909 0.6119 0
vn -0.1196 0.9928 -0
vn 0.8625 -0.506 0
vn 0.9564 -0.2921 0
vn 0.8401 0.5425 0
vn 0.1274 0.9919 0
vn 0 0 1
vn -0.6916 0.7223 -0
vn 0.4069 0.9135 0
vn 0.9995 -0.0312 0
vn 0.9825 -0.1863 0
vn -0.7443 0.6679 0
vn -0.91 0.4145 0
vn -0.8702 -0.4927 -0
vn -0.1127 -0.9936 -0
vn 0.1179 -0.993 0
vn -0.9987 0.0514 0
vn -0.3534 -0.9355 0
vn 0.7832 -0.6218 0
vn -0.9831 0.1832 0
vn -0.6344 0.773 0
vn 0.2903 0.9569 0
vn 0.2903 -0.9569 0
vn -0.773 0.6344 0
vn 0.098 0.9952 0
vn 0.4714 -0.8819 0
vn -0.8819 0.4714 0
vn 0.6344 -0.773 0
vn -0.9569 0.2903 0
vn 0.773 -0.6344 0
vn -0.9952 0.098 0
vn 0.8819 -0.4714 0
vn -0.9952 -0.098 0
vn 0.9569 -0.2903 0
vn -0.9569 -0.2903 0
vn 0.9952 -0.098 0
vn -0.8819 -0.4714 0
vn 0.9952 0.098 0
vn -0.773 -0.6344 0
vn 0.9569 0.2903 0
vn -0.6344 -0.773 0
vn 0.8819 0.4714 0
vn -0.4714 -0.8819 0
vn -0.098 0.9952 0
vn 0.773 0.6344 0
vn -0.2903 -0.9569 0
vn -0.2903 0.9569 0
vn 0.6344 0.773 0
vn -0.098 -0.9952 0
vn -0.4714 0.8819 0
vn 0.4714 0.8819 0
vn 0.098 -0.9952 0
vn 0 0 -1
vt 0 0
usemtl material_1
f 1/1/1 2/1/1 3/1/1 4/1/1 
f 5/1/2 6/1/2 7/1/2 8/1/2 
f 9/1/3 10/1/3 11/1/3 12/1/3 
f 11/1/4 10/1/4 13/1/4 14/1/4 
f 14/1/5 13/1/5 15/1/5 16/1/5 
f 16/1/6 15/1/6 5/1/6 8/1/6 
f 17/1/7 18/1/7 19/1/7 
f 20/1/8 17/1/8 19/1/8 21/1/8 
f 21/1/9 19/1/9 22/1/9 23/1/9 
f 23/1/10 22/1/10 18/1/10 24/1/10 
f 6/1/11 24/1/11 18/1/11 7/1/11 
f 3/1/12 17/1/12 20/1/12 4/1/12 
f 2/1/13 1/1/13 25/1/13 26/1/13 
f 26/1/14 25/1/14 27/1/14 28/1/14 
f 28/1/15 27/1/15 29/1/15 30/1/15 
f 31/1/16 32/1/16 30/1/16 29/1/16 
f 33/1/17 34/1/17 35/1/17 36/1/17 
f 36/1/18 35/1/18 37/1/18 38/1/18 
f 38/1/19 37/1/19 9/1/19 12/1/19 
f 31/1/20 34/1/20 33/1/20 32/1/20 
f 18/1/7 17/1/7 3/1/7 
f 7/1/7 18/1/7 3/1/7 
f 7/1/7 3/1/7 2/1/7 
f 2/1/7 26/1/7 28/1/7 
f 8/1/7 7/1/7 11/1/7 
f 14/1/7 16/1/7 8/1/7 
f 7/1/7 2/1/7 32/1/7 
f 12/1/7 11/1/7 32/1/7 
f 11/1/7 7/1/7 32/1/7 
f 18/1/7 22/1/7 19/1/7 
f 30/1/7 2/1/7 28/1/7 
f 12/1/7 32/1/7 33/1/7 
f 30/1/7 32/1/7 2/1/7 
f 12/1/7 33/1/7 36/1/7 
f 38/1/7 12/1/7 36/1/7 
f 14/1/7 8/1/7 11/1/7 
f 39/1/21 40/1/21 41/1/21 42/1/21 
f 43/1/22 44/1/22 45/1/22 46/1/22 
f 47/1/23 48/1/23 49/1/23 50/1/23 
f 51/1/24 52/1/24 40/1/24 39/1/24 
f 53/1/25 54/1/25 44/1/25 43/1/25 
f 55/1/26 56/1/26 48/1/26 47/1/26 
f 57/1/27 58/1/27 52/1/27 51/1/27 
f 59/1/28 60/1/28 56/1/28 55/1/28 
f 61/1/29 62/1/29 58/1/29 57/1/29 
f 63/1/30 64/1/30 60/1/30 59/1/30 
f 65/1/31 66/1/31 62/1/31 61/1/31 
f 67/1/32 68/1/32 64/1/32 63/1/32 
f 69/1/33 70/1/33 66/1/33 65/1/33 
f 71/1/34 72/1/34 68/1/34 67/1/34 
f 73/1/35 74/1/35 70/1/35 69/1/35 
f 75/1/36 76/1/36 72/1/36 71/1/36 
f 77/1/37 78/1/37 74/1/37 73/1/37 
f 79/1/38 80/1/38 76/1/38 75/1/38 
f 81/1/39 82/1/39 78/1/39 77/1/39 
f 83/1/40 84/1/40 80/1/40 79/1/40 
f 85/1/41 86/1/41 82/1/41 81/1/41 
f 87/1/42 88/1/42 84/1/42 83/1/42 
f 89/1/43 90/1/43 86/1/43 85/1/43 
f 91/1/44 92/1/44 54/1/44 53/1/44 
f 93/1/45 94/1/45 88/1/45 87/1/45 
f 95/1/46 96/1/46 90/1/46 89/1/46 
f 97/1/47 98/1/47 92/1/47 91/1/47 
f 99/1/48 100/1/48 94/1/48 93/1/48 
f 101/1/49 102/1/49 96/1/49 95/1/49 
f 42/1/50 41/1/50 98/1/50 97/1/50 
f 46/1/51 45/1/51 100/1/51 99/1/51 
f 50/1/52 49/1/52 102/1/52 101/1/52 
f 103/1/22 104/1/22 105/1/22 106/1/22 
f 107/1/23 108/1/23 109/1/23 110/1/23 
f 111/1/41 112/1/41 113/1/41 114/1/41 
f 115/1/25 116/1/25 104/1/25 103/1/25 
f 117/1/26 118/1/26 108/1/26 107/1/26 
f 119/1/43 120/1/43 112/1/43 111/1/43 
f 121/1/44 122/1/44 116/1/44 115/1/44 
f 123/1/28 124/1/28 118/1/28 117/1/28 
f 125/1/46 126/1/46 120/1/46 119/1/46 
f 127/1/47 128/1/47 122/1/47 121/1/47 
f 129/1/30 130/1/30 124/1/30 123/1/30 
f 131/1/49 132/1/49 126/1/49 125/1/49 
f 133/1/50 134/1/50 128/1/50 127/1/50 
f 135/1/32 136/1/32 130/1/32 129/1/32 
f 137/1/21 138/1/21 134/1/21 133/1/21 
f 139/1/34 140/1/34 136/1/34 135/1/34 
f 141/1/24 142/1/24 138/1/24 137/1/24 
f 143/1/36 144/1/36 140/1/36 139/1/36 
f 145/1/27 146/1/27 142/1/27 141/1/27 
f 147/1/38 148/1/38 144/1/38 143/1/38 
f 149/1/29 150/1/29 146/1/29 145/1/29 
f 151/1/40 152/1/40 148/1/40 147/1/40 
f 153/1/31 154/1/31 150/1/31 149/1/31 
f 155/1/42 156/1/42 152/1/42 151/1/42 
f 157/1/33 158/1/33 154/1/33 153/1/33 
f 159/1/45 160/1/45 156/1/45 155/1/45 
f 161/1/35 162/1/35 158/1/35 157/1/35 
f 163/1/48 164/1/48 160/1/48 159/1/48 
f 165/1/37 166/1/37 162/1/37 161/1/37 
f 106/1/51 105/1/51 164/1/51 163/1/51 
f 110/1/52 109/1/52 132/1/52 131/1/52 
f 114/1/39 113/1/39 166/1/39 165/1/39 
f 42/1/53 167/1/53 39/1/53 
f 46/1/53 167/1/53 43/1/53 
f 50/1/53 167/1/53 47/1/53 
f 39/1/53 167/1/53 51/1/53 
f 43/1/53 167/1/53 53/1/53 
f 47/1/53 167/1/53 55/1/53 
f 51/1/53 167/1/53 57/1/53 
f 55/1/53 167/1/53 59/1/53 
f 57/1/53 167/1/53 61/1/53 
f 59/1/53 167/1/53 63/1/53 
f 61/1/53 167/1/53 65/1/53 
f 63/1/53 167/1/53 67/1/53 
f 65/1/53 167/1/53 69/1/53 
f 67/1/53 167/1/53 71/1/53 
f 69/1/53 167/1/53 73/1/53 
f 71/1/53 167/1/53 75/1/53 
f 73/1/53 167/1/53 77/1/53 
f 75/1/53 167/1/53 79/1/53 
f 77/1/53 167/1/53 81/1/53 
f 79/1/53 167/1/53 83/1/53 
f 81/1/53 167/1/53 85/1/53 
f 83/1/53 167/1/53 87/1/53 
f 85/1/53 167/1/53 89/1/53 
f 53/1/53 167/1/53 91/1/53 
f 87/1/53 167/1/53 93/1/53 
f 89/1/53 167/1/53 95/1/53 
f 91/1/53 167/1/53 97/1/53 
f 93/1/53 167/1/53 99/1/53 
f 95/1/53 167/1/53 101/1/53 
f 97/1/53 167/1/53 42/1/53 
f 99/1/53 167/1/53 46/1/53 
f 101/1/53 167/1/53 50/1/53 
s off
g _1
v 9.29289 -0.707107 1.98721
v 9.4593 -0.5407 1.98721
v 9.36421 -0.424825 1.98721
v 9.16853 -0.55557 1.98721
v 10.9239 0.382684 1.98721
v 10.7065 0.292625 1.98721
v 10.75 0.14918 1.98721
v 10.9808 0.195091 1.98721
v 9.44443 -0.83147 1.98721
v 9.57518 -0.635796 1.98721
v 10.8315 0.555571 1.98721
v 10.6358 0.424826 1.98721
v 9.61732 -0.92388 1.98721
v 9.70738 -0.706458 1.98721
v 9.80491 0.980785 1.98721
v 9.85082 0.749972 1.98721
v 10 0.764665 1.98721
v 10 1 1.98721
v 10.7071 0.707108 1.98721
v 10.5407 0.5407 1.98721
v 9.80491 -0.980785 1.98721
v 9.85082 -0.749972 1.98721
v 9.61732 0.92388 1.98721
v 9.70738 0.706458 1.98721
v 10.5556 0.83147 1.98721
v 10.4248 0.635796 1.98721
v 10 -1 1.98721
v 10 -0.764665 1.98721
v 9.44443 0.83147 1.98721
v 9.57518 0.635796 1.98721
v 10.3827 0.92388 1.98721
v 10.2926 0.706459 1.98721
v 10.1951 -0.980785 1.98721
v 10.1492 -0.749972 1.98721
v 9.29289 0.707107 1.98721
v 9.4593 0.5407 1.98721
v 10.1951 0.980786 1.98721
v 10.1492 0.749972 1.98721
v 10.3827 -0.923879 1.98721
v 10.2926 -0.706458 1.98721
v 9.16853 0.55557 1.98721
v 9.36421 0.424825 1.98721
v 10.5556 -0.831469 1.98721
v 10.4248 -0.635795 1.98721
v 9.07612 0.382683 1.98721
v 9.29354 0.292625 1.98721
v 10.7071 -0.707106 1.98721
v 10.5407 -0.540699 1.98721
v 9.01922 0.19509 1.98721
v 9.25003 0.149179 1.98721
v 10.8315 -0.55557 1.98721
v 10.6358 -0.424825 1.98721
v 9 0 1.98721
v 9.23534 0 1.98721
v 10.9239 -0.382683 1.98721
v 10.7065 -0.292624 1.98721
v 9.01922 -0.19509 1.98721
v 9.25003 -0.149179 1.98721
v 10.9808 -0.195089 1.98721
v 10.75 -0.149178 1.98721
v 9.07612 -0.382683 1.98721
v 9.29354 -0.292624 1.98721
v 11 1e-06 1.98721
v 10.7647 1e-06 1.98721
v 10.2926 -0.706458 1.81054
v 10 0 1.81054
v 10.1492 -0.749972 1.81054
v 9.36421 0.424825 1.81054
v 9.4593 0.5407 1.81054
v 10 0.764665 1.81054
v 10.1492 0.749972 1.81054
v 10.4248 -0.635795 1.81054
v 9.29354 0.292625 1.81054
v 10.5407 -0.540699 1.81054
v 9.25003 0.149179 1.81054
v 10.6358 -0.424825 1.81054
v 9.23534 0 1.81054
v 10.7065 -0.292624 1.81054
v 9.25003 -0.149179 1.81054
v 10.75 -0.149178 1.81054
v 9.29354 -0.292624 1.81054
v 10.7647 1e-06 1.81054
v 9.36421 -0.424825 1.81054
v 10.75 0.14918 1.81054
v 9.4593 -0.5407 1.81054
v 10.7065 0.292625 1.81054
v 9.57518 -0.635796 1.81054
v 10.6358 0.424826 1.81054
v 9.70738 -0.706458 1.81054
v 9.85082 0.749972 1.81054
v 10.5407 0.5407 1.81054
v 9.85082 -0.749972 1.81054
v 9.70738 0.706458 1.81054
v 10.4248 0.635796 1.81054
v 10 -0.764665 1.81054
v 9.57518 0.635796 1.81054
v 10.2926 0.706459 1.81054
vn 0 0 1
vt 0 0
usemtl material_2
f 168/2/54 169/2/54 170/2/54 171/2/54 
f 172/2/54 173/2/54 174/2/54 175/2/54 
f 176/2/54 177/2/54 169/2/54 168/2/54 
f 178/2/54 179/2/54 173/2/54 172/2/54 
f 180/2/54 181/2/54 177/2/54 176/2/54 
f 182/2/54 183/2/54 184/2/54 185/2/54 
f 186/2/54 187/2/54 179/2/54 178/2/54 
f 188/2/54 189/2/54 181/2/54 180/2/54 
f 190/2/54 191/2/54 183/2/54 182/2/54 
f 192/2/54 193/2/54 187/2/54 186/2/54 
f 194/2/54 195/2/54 189/2/54 188/2/54 
f 196/2/54 197/2/54 191/2/54 190/2/54 
f 198/2/54 199/2/54 193/2/54 192/2/54 
f 200/2/54 201/2/54 195/2/54 194/2/54 
f 202/2/54 203/2/54 197/2/54 196/2/54 
f 204/2/54 205/2/54 199/2/54 198/2/54 
f 206/2/54 207/2/54 201/2/54 200/2/54 
f 208/2/54 209/2/54 203/2/54 202/2/54 
f 185/2/54 184/2/54 205/2/54 204/2/54 
f 210/2/54 211/2/54 207/2/54 206/2/54 
f 212/2/54 213/2/54 209/2/54 208/2/54 
f 214/2/54 215/2/54 211/2/54 210/2/54 
f 216/2/54 217/2/54 213/2/54 212/2/54 
f 218/2/54 219/2/54 215/2/54 214/2/54 
f 220/2/54 221/2/54 217/2/54 216/2/54 
f 222/2/54 223/2/54 219/2/54 218/2/54 
f 224/2/54 225/2/54 221/2/54 220/2/54 
f 226/2/54 227/2/54 223/2/54 222/2/54 
f 228/2/54 229/2/54 225/2/54 224/2/54 
f 230/2/54 231/2/54 227/2/54 226/2/54 
f 171/2/54 170/2/54 229/2/54 228/2/54 
f 175/2/54 174/2/54 231/2/54 230/2/54 
f 232/2/54 233/2/54 234/2/54 
f 235/2/54 233/2/54 236/2/54 
f 237/2/54 233/2/54 238/2/54 
f 239/2/54 233/2/54 232/2/54 
f 240/2/54 233/2/54 235/2/54 
f 241/2/54 233/2/54 239/2/54 
f 242/2/54 233/2/54 240/2/54 
f 243/2/54 233/2/54 241/2/54 
f 244/2/54 233/2/54 242/2/54 
f 245/2/54 233/2/54 243/2/54 
f 246/2/54 233/2/54 244/2/54 
f 247/2/54 233/2/54 245/2/54 
f 248/2/54 233/2/54 246/2/54 
f 249/2/54 233/2/54 247/2/54 
f 250/2/54 233/2/54 248/2/54 
f 251/2/54 233/2/54 249/2/54 
f 252/2/54 233/2/54 250/2/54 
f 253/2/54 233/2/54 251/2/54 
f 254/2/54 233/2/54 252/2/54 
f 255/2/54 233/2/54 253/2/54 
f 256/2/54 233/2/54 254/2/54 
f 257/2/54 233/2/54 237/2/54 
f 258/2/54 233/2/54 255/2/54 
f 259/2/54 233/2/54 256/2/54 
f 260/2/54 233/2/54 257/2/54 
f 261/2/54 233/2/54 258/2/54 
f 262/2/54 233/2/54 259/2/54 
f 263/2/54 233/2/54 260/2/54 
f 264/2/54 233/2/54 261/2/54 
f 234/2/54 233/2/54 262/2/54 
f 236/2/54 233/2/54 263/2/54 
f 238/2/54 233/2/54 264/2/54 
s off
g _2
v 10.1013 0.607823 1.62365
v 10.762 0.42209 1.62365
v 12.1162 2.97137 1.62705
v 11.3536 3.73394 1.51237
v 11.3613 3.75321 1.49537
v 12.1255 2.989 1.60798
v 12.1255 2.989 1.56142
v 11.3613 3.75321 1.44793
v 9.89875 0.607823 1.62365
v 8.64638 3.73394 1.51237
v 7.88382 2.97137 1.62705
v 9.23803 0.42209 1.62365
v 8.63866 3.75321 1.49537
v 8.63866 3.75321 1.44793
v 7.87445 2.989 1.56142
v 7.87445 2.989 1.60798
v 10.1023 0.606968 1.6037
v 11.3484 3.72654 1.49453
v 12.1132 2.96622 1.60795
v 10.763 0.421234 1.6037
v 11.3485 3.7394 1.48866
v 11.3478 3.74101 1.45623
v 12.1115 2.97565 1.56621
v 12.1136 2.97573 1.59896
v 9.89771 0.606968 1.6037
v 9.23699 0.421234 1.6037
v 7.88681 2.96622 1.60795
v 8.65156 3.72654 1.49453
v 8.65148 3.7394 1.48866
v 7.88638 2.97573 1.59896
v 7.88855 2.97565 1.56621
v 8.65216 3.74101 1.45623
vn -0.0519 0.0428 0.9977
vn 0.7071 0.7071 0
vn 0.4184 0.5284 0.7388
vn 0.0519 0.0428 0.9977
vn -0.7071 0.7071 0
vn -0.4184 0.5284 0.7388
vn 0.0515 -0.0421 -0.9978
vn -0.7081 -0.7059 0.0143
vn -0.389 -0.5038 -0.7713
vn -0.0515 -0.0421 -0.9978
vn 0.7081 -0.7059 0.0144
vn 0.389 -0.5037 -0.7713
vn -0.2705 -0.9623 0.0272
vn -0.8675 0.4106 0.2808
vn 0.8688 -0.4711 -0.1524
vn -0.7025 0.7114 0.0203
vn 0.7165 -0.6973 -0.0189
vn -0.928 0.372 0.0204
vn 0.8829 -0.4687 0.0279
vn 0.2705 -0.9623 0.0272
vn 0.8675 0.4106 0.2808
vn -0.8688 -0.471 -0.1524
vn 0.7025 0.7114 0.0203
vn -0.7165 -0.6973 -0.0189
vn 0.928 0.372 0.0204
vn -0.8829 -0.4687 0.0279
vt 0 0
vt 1 0
vt 1 0.739537
vt 0 0.880019
vt 0 0.885444
vt 1 0.74465
usemtl material_3
f 265/3/55 266/4/55 267/5/55 268/6/55 
f 269/7/56 270/8/56 271/8/56 272/7/56 
f 268/6/57 267/5/57 270/8/57 269/7/57 
f 273/3/58 274/6/58 275/5/58 276/4/58 
f 277/7/59 278/7/59 279/8/59 280/8/59 
f 274/6/60 277/7/60 280/8/60 275/5/60 
f 281/3/61 282/6/61 283/5/61 284/4/61 
f 285/7/62 286/7/62 287/8/62 288/8/62 
f 282/6/63 285/7/63 288/8/63 283/5/63 
f 289/3/64 290/4/64 291/5/64 292/6/64 
f 293/7/65 294/8/65 295/8/65 296/7/65 
f 292/6/66 291/5/66 294/8/66 293/7/66 
f 266/4/67 265/3/67 281/3/67 284/4/67 
f 268/6/68 269/7/68 285/7/68 282/6/68 
f 270/8/69 267/5/69 283/5/69 288/8/69 
f 269/7/70 272/7/70 286/7/70 285/7/70 
f 271/8/71 270/8/71 288/8/71 287/8/71 
f 265/3/72 268/6/72 282/6/72 281/3/72 
f 267/5/73 266/4/73 284/4/73 283/5/73 
f 273/3/74 276/4/74 290/4/74 289/3/74 
f 277/7/75 274/6/75 292/6/75 293/7/75 
f 275/5/76 280/8/76 294/8/76 291/5/76 
f 278/7/77 277/7/77 293/7/77 296/7/77 
f 280/8/78 279/8/78 295/8/78 294/8/78 
f 274/6/79 273/3/79 289/3/79 292/6/79 
f 276/4/80 275/5/80 291/5/80 290/4/80 
s off
g _3
v 11.3613 3.75321 1.44793
v 12.1255 2.989 1.56142
v 12.0986 2.989 1.54233
v 11.3343 3.75321 1.41891
v 11.0962 3.75321 1.3292
v 11.0962 2.989 1.3292
v 10.7444 2.989 1.2492
v 10.7444 3.75321 1.2492
v 10.3467 2.989 1.20454
v 10.3467 3.75321 1.20454
v 10 2.989 1.20454
v 10 3.75321 1.20454
v 8.63866 3.75321 1.44793
v 8.66565 3.75321 1.41891
v 7.90144 2.989 1.54233
v 7.87445 2.989 1.56142
v 8.90385 3.75321 1.3292
v 9.25558 3.75321 1.2492
v 9.25558 2.989 1.2492
v 8.90385 2.989 1.3292
v 9.65328 2.989 1.20454
v 9.65328 3.75321 1.20454
v 11.3478 3.74101 1.45623
v 11.3273 3.74966 1.43727
v 12.0883 2.98132 1.55766
v 12.1115 2.97565 1.56621
v 11.0916 3.75281 1.34866
v 10.7411 3.75321 1.26892
v 10.7411 2.989 1.26892
v 11.0916 2.9886 1.34866
v 10.3456 2.989 1.22451
v 10.3456 3.75321 1.22451
v 10 3.75321 1.22454
v 10 2.989 1.22454
v 8.65216 3.74101 1.45623
v 7.88855 2.97565 1.56621
v 7.91175 2.98132 1.55766
v 8.67274 3.74966 1.43727
v 8.90843 3.75281 1.34866
v 8.90843 2.9886 1.34866
v 9.25892 2.989 1.26892
v 9.25892 3.75321 1.26892
v 9.6544 2.989 1.22451
v 9.6544 3.75321 1.22451
vn 0.5831 0.4816 -0.6543
vn 0.2218 0 -0.9751
vn 0.237 0.0401 -0.9707
vn 0.1116 0 -0.9938
vn 0 0 -1
vn -0.5831 0.4817 -0.6543
vn -0.2218 0 -0.9751
vn -0.237 0.0401 -0.9707
vn -0.1116 0 -0.9938
vn -0.5748 -0.4708 0.6693
vn -0.2219 0 0.9751
vn -0.2349 -0.0403 0.9712
vn -0.1116 0 0.9938
vn 0.0001 0 1
vn 0.5748 -0.4708 0.6693
vn 0.2219 0 0.9751
vn 0.2349 -0.0403 0.9712
vn 0.1116 0 0.9938
vn -0.0001 0 1
vn -0.2106 0.9041 0.3718
vn 0.2207 -0.7957 -0.5641
vn -0.0291 0.9951 0.095
vn 0.0407 -0.977 -0.2095
vn 0 -1 0
vn 0 1 0
vn -0.0017 0.9999 0.0099
vn 0.0017 -0.9999 -0.0099
vn 0.2106 0.9041 0.3718
vn -0.2207 -0.7957 -0.5641
vn 0.0291 0.9951 0.095
vn -0.0407 -0.977 -0.2095
vn 0.0017 0.9999 0.0099
vn -0.0017 -0.9999 -0.0099
vt 0 0.885444
vt 1 0.74465
usemtl material_4
f 297/9/81 298/10/81 299/10/81 300/9/81 
f 301/9/82 302/10/82 303/10/82 304/9/82 
f 300/9/83 299/10/83 302/10/83 301/9/83 
f 305/10/84 306/9/84 304/9/84 303/10/84 
f 306/9/85 305/10/85 307/10/85 308/9/85 
f 309/9/86 310/9/86 311/10/86 312/10/86 
f 313/9/87 314/9/87 315/10/87 316/10/87 
f 310/9/88 313/9/88 316/10/88 311/10/88 
f 317/10/89 315/10/89 314/9/89 318/9/89 
f 318/9/85 308/9/85 307/10/85 317/10/85 
f 319/9/90 320/9/90 321/10/90 322/10/90 
f 323/9/91 324/9/91 325/10/91 326/10/91 
f 320/9/92 323/9/92 326/10/92 321/10/92 
f 327/10/93 325/10/93 324/9/93 328/9/93 
f 328/9/94 329/9/94 330/10/94 327/10/94 
f 331/9/95 332/10/95 333/10/95 334/9/95 
f 335/9/96 336/10/96 337/10/96 338/9/96 
f 334/9/97 333/10/97 336/10/97 335/9/97 
f 339/10/98 340/9/98 338/9/98 337/10/98 
f 340/9/99 339/10/99 330/10/99 329/9/99 
f 297/9/100 300/9/100 320/9/100 319/9/100 
f 299/10/101 298/10/101 322/10/101 321/10/101 
f 300/9/102 301/9/102 323/9/102 320/9/102 
f 302/10/103 299/10/103 321/10/103 326/10/103 
f 305/10/104 303/10/104 325/10/104 327/10/104 
f 304/9/105 306/9/105 328/9/105 324/9/105 
f 306/9/105 308/9/105 329/9/105 328/9/105 
f 307/10/104 305/10/104 327/10/104 330/10/104 
f 301/9/106 304/9/106 324/9/106 323/9/106 
f 303/10/107 302/10/107 326/10/107 325/10/107 
f 310/9/108 309/9/108 331/9/108 334/9/108 
f 312/10/109 311/10/109 333/10/109 332/10/109 
f 313/9/110 310/9/110 334/9/110 335/9/110 
f 311/10/111 316/10/111 336/10/111 333/10/111 
f 315/10/104 317/10/104 339/10/104 337/10/104 
f 318/9/105 314/9/105 338/9/105 340/9/105 
f 308/9/105 318/9/105 340/9/105 329/9/105 
f 317/10/104 307/10/104 330/10/104 339/10/104 
f 314/9/112 313/9/112 335/9/112 338/9/112 
f 316/10/113 315/10/113 337/10/113 336/10/113 
s off
